inDegrees=no
num_controls=7
num_derivatives=13
num_iterations=123
num_multipliers=7
num_parameters=0
num_slacks=7
num_states=26
objective=5.550855
objective_accelerations=0.790820
objective_balance=0.039177
objective_effort=0.248929
objective_height=4.419743
objective_ligament=0.052186
solver_duration=1351.639475
status=Solve_Succeeded
success=true
DataType=double
version=3
OpenSimVersion=4.4-2022-07-23-0e9fedc
endheader
time	/jointset/ground_pelvis/pelvis_tilt/value	/jointset/ground_pelvis/pelvis_tx/value	/jointset/ground_pelvis/pelvis_ty/value	/jointset/hip_l/hip_flexion_l/value	/jointset/hip_l/hip_adduction_l/value	/jointset/hip_l/hip_rotation_l/value	/jointset/back/lumbar_extension/value	/jointset/patellofemoral_l/patellar_flexion_l/value	/jointset/knee_l/knee_flexion_l/value	/jointset/knee_l/knee_adduction_l/value	/jointset/knee_l/knee_rotation_l/value	/jointset/ankle_l/ankle_angle_l/value	/jointset/subtalar_l/subtalar_angle_l/value	/jointset/ground_pelvis/pelvis_tilt/speed	/jointset/ground_pelvis/pelvis_tx/speed	/jointset/ground_pelvis/pelvis_ty/speed	/jointset/hip_l/hip_flexion_l/speed	/jointset/hip_l/hip_adduction_l/speed	/jointset/hip_l/hip_rotation_l/speed	/jointset/back/lumbar_extension/speed	/jointset/patellofemoral_l/patellar_flexion_l/speed	/jointset/knee_l/knee_flexion_l/speed	/jointset/knee_l/knee_adduction_l/speed	/jointset/knee_l/knee_rotation_l/speed	/jointset/ankle_l/ankle_angle_l/speed	/jointset/subtalar_l/subtalar_angle_l/speed	/forceset/tau_hip_flexion_l	/forceset/tau_hip_adduction_l	/forceset/tau_hip_rotation_l	/forceset/tau_knee_flexion_l	/forceset/tau_ankle_angle_l	/forceset/tau_subtalar_angle_l	/forceset/tau_lumbar_extension	lambda_cid13_p0	lambda_cid13_p1	lambda_cid13_p2	lambda_cid13_p3	lambda_cid13_p4	lambda_cid13_p5	lambda_cid14_p0	/jointset/ground_pelvis/pelvis_tilt/accel	/jointset/ground_pelvis/pelvis_tx/accel	/jointset/ground_pelvis/pelvis_ty/accel	/jointset/hip_l/hip_flexion_l/accel	/jointset/hip_l/hip_adduction_l/accel	/jointset/hip_l/hip_rotation_l/accel	/jointset/back/lumbar_extension/accel	/jointset/patellofemoral_l/patellar_flexion_l/accel	/jointset/knee_l/knee_flexion_l/accel	/jointset/knee_l/knee_adduction_l/accel	/jointset/knee_l/knee_rotation_l/accel	/jointset/ankle_l/ankle_angle_l/accel	/jointset/subtalar_l/subtalar_angle_l/accel	gamma_cid13_p0	gamma_cid13_p1	gamma_cid13_p2	gamma_cid13_p3	gamma_cid13_p4	gamma_cid13_p5	gamma_cid14_p0
1	-0.912836989067104	-0.1646841396439012	0.5785907331689997	2.18166077215088	-0.3390428791400047	0.09134897383407012	-0.4363192266903206	1.147444032515833	1.147444032513103	-0.02358278389353598	-0.1745044120128199	0.01293262179737668	0.0845640002945383	-0.1743191800015179	0.0002405248056906527	0.03380687552698287	0.02014080946676046	-0.01088282977371991	-0.0623338144957105	8.255638548196513e-05	-0.1803678104442493	-0.1803678104441877	-0.01365579717392147	9.05741247007495e-05	-0.0405376935489901	-0.02249751020225061	-0.4102821607127503	-0.008363735256166044	-0.003804108856637521	-0.1222146260663267	0.09480520991616453	0.01368872370350586	0.2950216306586149	-0.3676447977245864	-3.701947244914612	-2.179410565970036	-4.408627282310539	-552.0347907982099	-63.21383683334079	-0.7330674054331568	3.293025845587866	0.6644076516861199	1.89083506980892	-7.908768645615865	-0.3380385805911748	-1.397805577625792	-0.02077650661406186	-4.099893740513532	-4.099893740513709	-0.4509229713108157	-0.02887806177943627	0.2180302362708849	-0.2639899628400521	-1.552564515730903e-08	-7.286580180768041e-08	5.165559913707579e-09	-2.517160431836513e-10	-1.400768310369069e-08	3.496862072162784e-08	-1.922136603026538e-08
1.01	-0.9144163748581943	-0.1646484895224442	0.5790231657664824	2.181467752642491	-0.3391676896167646	0.09065653735369368	-0.4363182396894817	1.14543543209146	1.14543543208797	-0.02374127666429168	-0.1745034900381136	0.01253817798911391	0.08432677496333402	-0.1415272251369347	0.006905291577316269	0.0526722791603276	-0.05876121491869938	-0.01407159684482703	-0.07614688457162658	0.0001052549958984885	-0.2213382705540835	-0.2213382705540038	-0.01804258801642261	9.344037472297875e-05	-0.03835042555146433	-0.02493931573791436	-0.4105799852032047	-0.008229324465233452	-0.003785399624774144	-0.1216216721324036	0.09495363488468161	0.01381096063882192	0.2951905875484446	-0.2958256627357064	-3.772342798458526	-2.162781467239328	-4.735672579556179	-551.9759611827823	-63.20649078833322	-0.7582367317573456	3.276890222620459	0.6698789849673171	1.883284346632712	-7.883398361979924	-0.3081363934451521	-1.372087451802056	0.01235472617715737	-4.093517058238853	-4.093517058235656	-0.4325513102473345	0.0148166248895053	0.2191657456394173	-0.2330260729396356	-1.645024661304487e-08	-8.446244846653131e-08	-8.926348340604185e-11	-5.047685526440673e-09	-1.965286058844189e-08	4.793095153498057e-08	-2.249586980184285e-08
1.02	-0.9156669191175383	-0.1645457181742559	0.5796440306676012	2.180485217084505	-0.3393241558888697	0.08982616422670564	-0.4363173133662231	1.143017548083577	1.143017548079426	-0.02394363617718238	-0.1745025498696383	0.0121656249936556	0.08406538153197134	-0.1085508736433721	0.0136647701519643	0.07149333625417494	-0.1377624003829249	-0.01721398883888732	-0.08992114381669172	7.042085854704598e-05	-0.2622245271447483	-0.2622245271446497	-0.02242914564004169	9.421288460716847e-05	-0.03615953098810722	-0.0273311302339831	-0.4108778096941165	-0.008094913674389614	-0.003766690391500816	-0.1210287181984186	0.09510205985324094	0.01393319757404844	0.2953595444377246	-0.2274753630000632	-3.843044373771364	-2.145059967990425	-5.077074348159499	-551.9942594459295	-63.19132281940102	-0.7891069583662913	3.329905171382863	0.6833500122908007	1.881965761909398	-7.928600861368316	-0.3287635651820678	-1.390043411455824	-0.03228305616764751	-4.083053036679401	-4.083053036679471	-0.4508763275345006	-0.02929680980747958	0.2187555494375334	-0.253991754921176	-1.611342324249779e-08	-9.680102490465043e-08	-1.169036497781692e-08	-1.285143917940832e-08	-2.30217390783556e-08	5.719522442842802e-08	-2.506880833892485e-08
1.03	-0.9165867983700742	-0.1643748444204403	0.5804528334904934	2.178712261344699	-0.3395117891817179	0.08885827743550491	-0.4363169030846907	1.140191255877168	1.140191255875173	-0.0241898770189072	-0.1745016085819191	0.01181496647625542	0.0837803342146725	-0.07539590317528662	0.02052926007076662	0.09025485869539078	-0.2168371679223665	-0.02030026064193875	-0.1036559545266998	1.352937132246391e-05	-0.303016310784785	-0.3030163107847908	-0.02680902551775859	9.175502571598951e-05	-0.03397376544065706	-0.02966587231968409	-0.4109311858607615	-0.00788863051978368	-0.003734126981215209	-0.1203942905472689	0.09521168811502341	0.01411757679481168	0.2954265410677326	-0.1561824606739392	-3.942176094008885	-2.121747921367878	-5.438329903120123	-551.8154478256553	-63.21616720385359	-0.8259940551976552	3.312649513997484	0.6908862168452319	1.871384747297101	-7.898182861990089	-0.2966812936076864	-1.365184833060787	0.007891893149734831	-4.074594981997758	-4.074594982013238	-0.4300709933331931	0.01393810068068645	0.2182411734494993	-0.2213258084060338	-1.576372819004985e-08	-1.091471720548029e-07	-2.335622441199617e-08	-2.068588450757711e-08	-2.636739002750565e-08	6.642176203697846e-08	-2.763458804708344e-08
1.04	-0.9171742566120475	-0.1641347482204015	0.581448879390208	2.176148304297087	-0.339729909653758	0.08775304555079952	-0.4363170049002683	1.136957575043499	1.136957575043679	-0.02447962209468548	-0.1745007601978587	0.01148611643754231	0.08347231740191448	-0.04206667152827843	0.02750925939659469	0.1089419516186005	-0.2959626619321678	-0.02331142467463979	-0.1173901625282094	-3.19985899895379e-05	-0.3437022525980992	-0.3437022525982102	-0.03112999241317008	7.563215123720249e-05	-0.03179783525117622	-0.03192502932583845	-0.4109845620276705	-0.007682347365093935	-0.003701563572493871	-0.1197598628961283	0.09532131637687002	0.01430195601570547	0.2954935376974383	-0.08838468557507663	-4.041712476972156	-2.097209808680706	-5.81474235110793	-551.7143811059104	-63.23483311452625	-0.8692219120991549	3.364757407166603	0.7064518936962669	1.867079858308222	-7.938746155439915	-0.3137420111122514	-1.389922869756374	-0.03001035098456101	-4.061884671334733	-4.061884671334956	-0.4390937310735601	-0.03202981292545265	0.2167884778442545	-0.2388747390119451	-1.476019967397282e-08	-1.209324453249902e-07	-3.75837492510255e-08	-2.925238152144209e-08	-2.87816017098241e-08	7.269722933286263e-08	-2.967386044849448e-08
1.05	-0.9174275962126741	-0.1638242491379733	0.5826313496309315	2.172793010216502	-0.3399777885357562	0.0865107744225528	-0.4363175125369117	1.133317652090132	1.133317652091457	-0.02481258098790626	-0.1745000707428609	0.01117893049918437	0.08314204517556979	-0.00857697629157071	0.03461236480286708	0.127532352221694	-0.3750875902500571	-0.02625005288790888	-0.131046721077887	-6.808870004476183e-05	-0.3842556317266963	-0.3842556317267342	-0.03546476115979894	6.564078844074358e-05	-0.02964398604733219	-0.03411620631480509	-0.410622796569285	-0.007421166032481901	-0.003650030121723023	-0.1191342146157579	0.09544752637023551	0.0145407539858642	0.2953265409618363	0.005520289532082553	-4.16818095237323	-2.069832546336284	-6.214295270445417	-551.3014762879758	-63.28936022606569	-0.9192009345397429	3.344710552265676	0.7155033669675008	1.852052258387734	-7.898088170817098	-0.2817543515732456	-1.350948432253366	0.009807666317792021	-4.048052220659708	-4.048052220648803	-0.4311482455496869	0.01502118138237778	0.213980090051337	-0.207230054789185	-1.373623886215739e-08	-1.327001912864287e-07	-5.189132613395637e-08	-3.784175515048508e-08	-3.116670591505407e-08	7.888047568147599e-08	-3.169667949656967e-08
1.06	-0.9173453118668173	-0.1634420663009068	0.5839991302970994	2.168646722452605	-0.3402546199248924	0.08513245249163087	-0.4363183378730288	1.12927299780804	1.129272997810557	-0.02518898352754224	-0.1744993802056517	0.01089314244255153	0.08279026300414515	0.02505811775876937	0.04184601032425592	0.1460040367074093	-0.4541613986020747	-0.02910192610663652	-0.1446003230148535	-9.553851682223913e-05	-0.4246485183367719	-0.4246485183367361	-0.03981872187017876	7.584859922254257e-05	-0.02751825890760475	-0.03622701834177876	-0.4102610311108602	-0.007159984700324461	-0.003598496663942355	-0.1185085663353411	0.09557373636344317	0.01477955195544155	0.2951595442263208	0.09590541682383472	-4.295204221537094	-2.041028841323764	-6.62998052959432	-550.9669489217118	-63.34009342321522	-0.976345194777924	3.39383716989225	0.7325599167198839	1.843336634832624	-7.928522162265337	-0.2963910122043275	-1.369331547214403	-0.02828229232761428	-4.029786167630293	-4.029786167630353	-0.4429321238238789	-0.02798997821022816	0.2111640650215407	-0.2228017466134216	-1.184541074829676e-08	-1.452563481165204e-07	-7.735163711964676e-08	-4.701707201005828e-08	-3.275481695267852e-08	7.791178594122177e-08	-3.195154574066716e-08
1.07	-0.9169259922776403	-0.1629868645982241	0.5855509691765105	2.163710091794545	-0.3405595594572396	0.08361922398876072	-0.4363194167008744	1.124825285027847	1.124825285030695	-0.0256091613192847	-0.1744984993323563	0.01062843811739369	0.08241773829134962	0.05882472118900506	0.04921899024203612	0.1643375298155005	-0.5331417542470065	-0.03186818445284507	-0.1580325225565225	-0.0001198345910196645	-0.4648603301060986	-0.4648603301061676	-0.04421209450925949	0.0001011353784091114	-0.02542862107454626	-0.03826153967454102	-0.4094840398360666	-0.006839389070863676	-0.003526922924365538	-0.1179136806710332	0.09575468383030247	0.01505263260994518	0.2947594625771177	0.2227806337217795	-4.441650471999945	-2.011247926562231	-7.079198365559353	-550.335568712143	-63.4161300006703	-1.041151250308402	3.370903162581408	0.7433546596601853	1.824417363084869	-7.879353195260096	-0.2640387572059067	-1.328264278128611	0.01055560924577621	-4.011816118398067	-4.011816118414244	-0.4368691971541898	0.01789810970390184	0.2069520924475678	-0.1912816873555227	-9.908472671561393e-09	-1.578544416949447e-07	-1.034051786427181e-07	-5.62235560627448e-08	-3.430053473670693e-08	7.656267406858093e-08	-3.211237194199986e-08
1.08	-0.9161684404074631	-0.1624571955702944	0.587285355329858	2.157984345394239	-0.3408916206753075	0.08197205346662034	-0.4363207267145895	1.119976466642679	1.119976466645555	-0.02607313871180702	-0.1744973435703463	0.01038444786057701	0.08202536749307643	0.09270457393869959	0.05673947537367749	0.1825134914947039	-0.6119845470781923	-0.03452626325430658	-0.1713887269174384	-0.0001417756968417205	-0.5048696393479524	-0.5048696393481261	-0.04857864167633262	0.0001308263063497505	-0.02337544524148187	-0.04019623543719914	-0.4087070485609346	-0.006518793440687007	-0.003455349197548049	-0.1173187950069789	0.09593563129730677	0.01532571326532381	0.2943593809283914	0.3461120884297214	-4.58885316668588	-1.979773290563652	-7.545624797487749	-549.7832273488305	-63.49143688852202	-1.11411972570114	3.416487033783397	0.7620609594923942	1.811830349055084	-7.901009599515778	-0.2747551032549547	-1.354132511063961	-0.02781129865060775	-3.989285662135599	-3.989285662135672	-0.4375670294225388	-0.02710914845985877	0.203871665023212	-0.2028366325927284	-7.29473685608012e-09	-1.706437838412064e-07	-1.363180515459291e-07	-6.590637190995207e-08	-3.455084783160317e-08	7.005736166010183e-08	-3.115019686124273e-08
